<?xml version="1.0" encoding="UTF-8"?><svg id="Layer_1" xmlns="http://www.w3.org/2000/svg" viewBox="0 0 342.13 97.02"><polygon points="72.98 31.64 68.76 35.84 46.32 58.19 4.88 58.19 31.54 31.64 4.88 5.09 46.33 5.09 72.98 31.64" style="fill:#fcfdff;"/><polygon points="60.03 65.39 86.68 91.93 45.24 91.93 18.58 65.39 22.8 61.18 49.33 61.18 71.77 38.83 86.69 38.83 60.03 65.39" style="fill:#fcfdff;"/><path d="M111.11,47.79c-2.51-1.02-4.52-2.54-6.02-4.55-1.5-2.01-2.3-4.43-2.38-7.26h11.24c.16,1.6.72,2.82,1.67,3.66.95.84,2.18,1.26,3.71,1.26s2.8-.36,3.71-1.08c.91-.72,1.36-1.71,1.36-2.98,0-1.07-.36-1.95-1.08-2.65-.72-.7-1.61-1.27-2.66-1.72s-2.54-.96-4.48-1.54c-2.8-.86-5.09-1.72-6.86-2.58-1.77-.86-3.29-2.13-4.57-3.81-1.28-1.68-1.92-3.88-1.92-6.58,0-4.02,1.46-7.17,4.39-9.44,2.92-2.28,6.73-3.41,11.43-3.41s8.63,1.14,11.55,3.41c2.92,2.28,4.49,5.44,4.69,9.5h-11.43c-.08-1.39-.6-2.49-1.54-3.29-.95-.8-2.16-1.2-3.64-1.2-1.28,0-2.31.34-3.09,1.01s-1.17,1.65-1.17,2.92c0,1.39.66,2.48,1.98,3.26s3.38,1.62,6.18,2.52c2.8.94,5.07,1.85,6.83,2.71,1.75.86,3.26,2.11,4.54,3.75,1.28,1.64,1.92,3.75,1.92,6.34s-.63,4.7-1.88,6.71c-1.26,2.01-3.08,3.61-5.47,4.8-2.39,1.19-5.21,1.78-8.46,1.78s-6.01-.51-8.52-1.54Z" style="fill:#fcfdff;"/><path d="M151.23,46.49c-3.4-1.89-6.09-4.52-8.09-7.9-2-3.38-3-7.19-3-11.41s1-8.02,3-11.38c2-3.36,4.69-5.99,8.09-7.87,3.4-1.89,7.13-2.83,11.21-2.83s7.81.94,11.21,2.83c3.4,1.89,6.07,4.51,8.03,7.87,1.96,3.36,2.93,7.16,2.93,11.38s-.99,8.03-2.96,11.41c-1.98,3.38-4.65,6.02-8.03,7.9-3.38,1.89-7.1,2.83-11.18,2.83s-7.81-.94-11.21-2.83ZM170.75,36.28c2.08-2.3,3.12-5.33,3.12-9.1s-1.04-6.86-3.12-9.13c-2.08-2.28-4.85-3.41-8.31-3.41s-6.29,1.13-8.37,3.38c-2.08,2.26-3.12,5.31-3.12,9.17s1.04,6.86,3.12,9.13c2.08,2.28,4.87,3.41,8.37,3.41s6.23-1.15,8.31-3.45Z" style="fill:#fcfdff;"/><path d="M201.05,40.77h13.84v8.12h-24.4V5.71h10.56v35.06Z" style="fill:#fcfdff;"/><path d="M260.66,5.71l-15.38,43.18h-13.22l-15.38-43.18h11.24l10.75,32.6,10.81-32.6h11.18Z" style="fill:#fcfdff;"/><path d="M275.6,14.14v8.73h14.15v8.12h-14.15v9.47h16v8.43h-26.56V5.71h26.56v8.43h-16Z" style="fill:#fcfdff;"/><path d="M337.25,48.89h-10.56l-17.67-26.64v26.64h-10.56V5.71h10.56l17.67,26.76V5.71h10.56v43.18Z" style="fill:#fcfdff;"/><path d="M109.9,88.16c-1.62-.72-2.88-1.73-3.8-3.01-.92-1.28-1.39-2.77-1.42-4.45h4.31c.15,1.45.75,2.66,1.8,3.65,1.05.99,2.58,1.48,4.6,1.48s3.44-.48,4.55-1.44c1.11-.96,1.67-2.19,1.67-3.69,0-1.18-.33-2.14-.98-2.88-.65-.74-1.47-1.3-2.44-1.68-.98-.38-2.3-.8-3.96-1.24-2.04-.53-3.68-1.06-4.91-1.59-1.23-.53-2.28-1.36-3.15-2.5-.87-1.13-1.31-2.66-1.31-4.58,0-1.68.43-3.17,1.29-4.47.86-1.3,2.07-2.3,3.62-3.01,1.56-.71,3.34-1.06,5.35-1.06,2.9,0,5.28.72,7.13,2.17s2.9,3.36,3.13,5.75h-4.44c-.15-1.18-.77-2.22-1.87-3.12-1.1-.9-2.55-1.35-4.35-1.35-1.69,0-3.07.44-4.13,1.31s-1.6,2.09-1.6,3.65c0,1.12.32,2.04.96,2.74s1.42,1.25,2.36,1.62c.93.37,2.24.79,3.93,1.26,2.04.56,3.69,1.11,4.93,1.66,1.24.55,2.31,1.39,3.2,2.52.89,1.14,1.33,2.68,1.33,4.62,0,1.5-.4,2.92-1.2,4.25-.8,1.33-1.98,2.4-3.55,3.23-1.57.83-3.42,1.24-5.55,1.24s-3.87-.36-5.49-1.08Z" style="fill:#fcfdff;"/><path d="M164,58.09l-10.09,19.21v11.64h-4.04v-11.64l-10.13-19.21h4.49l7.64,15.62,7.64-15.62h4.49Z" style="fill:#fcfdff;"/><path d="M203.28,88.93h-4.04l-16.26-24.56v24.56h-4.04v-30.89h4.04l16.26,24.52v-24.52h4.04v30.89Z" style="fill:#fcfdff;"/><path d="M239.89,58.09v3.28h-8.44v27.57h-4.04v-27.57h-8.49v-3.28h20.97Z" style="fill:#fcfdff;"/><path d="M271.84,88.93l-7.38-12.61h-4.89v12.61h-4.04v-30.84h10c2.34,0,4.32.4,5.93,1.2,1.61.8,2.82,1.87,3.62,3.23.8,1.36,1.2,2.91,1.2,4.65,0,2.12-.62,4-1.84,5.62s-3.07,2.7-5.53,3.23l7.78,12.92h-4.84ZM259.58,73.09h5.95c2.19,0,3.84-.54,4.93-1.62,1.1-1.08,1.64-2.51,1.64-4.31s-.54-3.25-1.62-4.25c-1.08-1-2.73-1.5-4.96-1.5h-5.95v11.68Z" style="fill:#fcfdff;"/><path d="M297.26,58.09v30.84h-4.04v-30.84h4.04Z" style="fill:#fcfdff;"/><path d="M327.47,73.53l9.51,15.4h-4.58l-7.42-12.04-7.06,12.04h-4.49l9.46-15.4-9.51-15.44h4.53l7.46,12.08,7.11-12.08h4.53l-9.55,15.44Z" style="fill:#fcfdff;"/></svg>